<?xml version="1.0" encoding="UTF-8"?>
<!DOCTYPE svg PUBLIC "-//W3C//DTD SVG 1.1//EN" "http://www.w3.org/Graphics/SVG/1.1/DTD/svg11.dtd">
<svg xmlns="http://www.w3.org/2000/svg" version="1.1" width="1000px" height="610px" style="shape-rendering:geometricPrecision; text-rendering:geometricPrecision; image-rendering:optimizeQuality; fill-rule:evenodd; clip-rule:evenodd" xmlns:xlink="http://www.w3.org/1999/xlink">
<g><path style="opacity:1" fill="#fefefe" d="M -0.5,-0.5 C 332.833,-0.5 666.167,-0.5 999.5,-0.5C 999.5,202.833 999.5,406.167 999.5,609.5C 666.167,609.5 332.833,609.5 -0.5,609.5C -0.5,406.167 -0.5,202.833 -0.5,-0.5 Z"/></g>
<g><path style="opacity:1" fill="#0dcdf6" d="M 264.5,154.5 C 288.933,158.3 306.933,170.967 318.5,192.5C 319.465,196.773 320.131,201.106 320.5,205.5C 320.16,208.675 318.493,210.841 315.5,212C 310.474,213.494 306.308,212.327 303,208.5C 298.179,195.518 289.679,185.851 277.5,179.5C 268.848,174.38 259.348,172.046 249,172.5C 246.31,172.503 243.81,172.836 241.5,173.5C 239.597,173.796 237.93,174.463 236.5,175.5C 216.317,182.185 203.483,195.852 198,216.5C 193.991,241.534 198.824,264.534 212.5,285.5C 214.5,289.5 217.5,292.5 221.5,294.5C 229.293,301.238 237.959,306.738 247.5,311C 267.346,318.727 287.346,326.06 307.5,333C 339.553,346.388 364.053,368.221 381,398.5C 384.716,405.481 387.55,412.815 389.5,420.5C 390.767,429.198 392.267,437.865 394,446.5C 394.5,456.161 394.666,465.828 394.5,475.5C 394.5,478.5 394.5,481.5 394.5,484.5C 392.96,486.838 392.294,489.505 392.5,492.5C 392.037,495.482 391.704,498.482 391.5,501.5C 390.076,503.515 389.41,505.848 389.5,508.5C 385.951,517.266 381.617,525.599 376.5,533.5C 374.413,534.585 373.08,536.251 372.5,538.5C 358.981,552.358 343.314,563.025 325.5,570.5C 319.608,572.129 313.941,574.129 308.5,576.5C 302.13,577.676 295.796,579.009 289.5,580.5C 282.352,581.426 275.352,582.426 268.5,583.5C 259.318,583.827 250.318,583.493 241.5,582.5C 237.1,580.896 232.434,580.229 227.5,580.5C 211.474,578.324 196.141,573.824 181.5,567C 177.258,564.39 173.258,561.557 169.5,558.5C 165.878,554.692 161.878,551.359 157.5,548.5C 144.612,535.402 135.279,520.068 129.5,502.5C 128.204,497.938 127.538,493.271 127.5,488.5C 127.299,475.443 127.966,462.443 129.5,449.5C 129.405,446.303 130.072,443.303 131.5,440.5C 135.738,436.389 140.738,435.389 146.5,437.5C 147.5,438.167 148.5,438.833 149.5,439.5C 150.265,442.096 150.599,444.763 150.5,447.5C 149.79,453.571 148.79,459.571 147.5,465.5C 146.343,474.324 146.176,483.324 147,492.5C 147.942,495.374 149.109,498.04 150.5,500.5C 150.343,501.873 150.51,503.207 151,504.5C 152.566,507.752 154.399,510.752 156.5,513.5C 159.826,518.495 163.159,523.495 166.5,528.5C 168.5,532.5 171.5,535.5 175.5,537.5C 185.89,546.195 197.557,552.528 210.5,556.5C 211.568,557.434 212.901,557.768 214.5,557.5C 214.862,536.974 214.195,516.641 212.5,496.5C 211.735,493.904 211.401,491.237 211.5,488.5C 211.5,484.833 211.5,481.167 211.5,477.5C 208.615,477.194 205.948,477.527 203.5,478.5C 198.489,478.666 193.489,478.499 188.5,478C 187.748,477.329 187.414,476.496 187.5,475.5C 187.081,472.675 188.081,470.509 190.5,469C 196.721,468.729 202.721,467.896 208.5,466.5C 209.829,460.872 210.496,454.872 210.5,448.5C 209.824,430.172 209.491,411.839 209.5,393.5C 209.272,381.141 209.605,368.807 210.5,356.5C 213.356,343.273 220.689,333.44 232.5,327C 224.574,322.549 217.241,317.382 210.5,311.5C 208.1,308.097 205.1,305.43 201.5,303.5C 200.5,301.833 199.167,300.5 197.5,299.5C 177.823,271.284 171.657,240.284 179,206.5C 186.573,184.497 200.74,168.33 221.5,158C 222.793,157.51 224.127,157.343 225.5,157.5C 229.059,157.592 232.392,156.759 235.5,155C 245.161,154.5 254.828,154.334 264.5,154.5 Z"/></g>
<g><path style="opacity:1" fill="#4ddef9" d="M 264.5,154.5 C 254.828,154.334 245.161,154.5 235.5,155C 232.392,156.759 229.059,157.592 225.5,157.5C 235.562,152.808 246.229,151.308 257.5,153C 260.036,153.186 262.369,153.686 264.5,154.5 Z"/></g>
<g><path style="opacity:1" fill="#62e6fa" d="M 241.5,173.5 C 243.81,172.836 246.31,172.503 249,172.5C 259.348,172.046 268.848,174.38 277.5,179.5C 270.144,176.411 262.477,174.744 254.5,174.5C 250.366,173.515 246.032,173.182 241.5,173.5 Z"/></g>
<g><path style="opacity:1" fill="#d1f7fd" d="M 241.5,173.5 C 246.032,173.182 250.366,173.515 254.5,174.5C 248.464,174.36 242.464,174.693 236.5,175.5C 237.93,174.463 239.597,173.796 241.5,173.5 Z"/></g>
<g><path style="opacity:1" fill="#4be1f9" d="M 318.5,192.5 C 321.227,196.592 321.894,200.926 320.5,205.5C 320.131,201.106 319.465,196.773 318.5,192.5 Z"/></g>
<g><path style="opacity:1" fill="#d5f8fd" d="M 672.5,279.5 C 668.473,275.716 663.806,274.716 658.5,276.5C 658.611,275.883 658.944,275.383 659.5,275C 663.261,274.262 666.928,274.595 670.5,276C 671.823,276.816 672.489,277.983 672.5,279.5 Z"/></g>
<g><path style="opacity:1" fill="#0bcdf6" d="M 671.5,291.5 C 650.069,311.42 632.235,334.087 618,359.5C 600.168,391.497 585.335,424.831 573.5,459.5C 571.39,463.502 570.057,467.835 569.5,472.5C 565.831,484.501 563.165,496.834 561.5,509.5C 559.136,518.885 558.136,528.552 558.5,538.5C 551.142,548.126 544.308,547.792 538,537.5C 524.601,469.597 510.768,401.93 496.5,334.5C 496.477,332.073 495.977,329.74 495,327.5C 494.209,328.745 493.709,330.078 493.5,331.5C 482.106,364.014 471.106,396.68 460.5,429.5C 459.129,431.936 458.129,434.603 457.5,437.5C 445.515,471.62 434.015,505.954 423,540.5C 419.491,545.838 414.658,547.672 408.5,546C 406.536,544.549 405.203,542.716 404.5,540.5C 404.505,536.466 404.838,532.466 405.5,528.5C 411.065,509.469 417.399,490.802 424.5,472.5C 426.989,467.836 428.656,462.836 429.5,457.5C 448.376,400.037 467.543,342.704 487,285.5C 488.704,283.627 490.537,281.96 492.5,280.5C 497.806,278.716 502.473,279.716 506.5,283.5C 508.282,287.629 509.282,291.962 509.5,296.5C 509.41,299.152 510.076,301.485 511.5,303.5C 514.295,317.473 516.961,331.473 519.5,345.5C 519.41,348.152 520.076,350.485 521.5,352.5C 524.289,366.445 526.955,380.445 529.5,394.5C 529.41,397.152 530.076,399.485 531.5,401.5C 535.742,424.292 540.408,446.958 545.5,469.5C 545.64,475.483 546.64,475.816 548.5,470.5C 552.145,455.559 557.145,441.226 563.5,427.5C 565.074,425.898 565.741,423.898 565.5,421.5C 569.034,411.435 573.368,401.768 578.5,392.5C 581.496,389.503 583.163,385.836 583.5,381.5C 587.755,376.664 590.755,370.998 592.5,364.5C 601.923,344.635 613.589,326.302 627.5,309.5C 631.536,305.466 635.202,301.132 638.5,296.5C 642.5,293.167 646.167,289.5 649.5,285.5C 652.899,283.612 655.899,281.112 658.5,278C 669.853,275.852 674.186,280.352 671.5,291.5 Z"/></g>
<g><path style="opacity:1" fill="#d1f7fd" d="M 506.5,283.5 C 502.473,279.716 497.806,278.716 492.5,280.5C 492.611,279.883 492.944,279.383 493.5,279C 497.261,278.262 500.928,278.595 504.5,280C 505.823,280.816 506.489,281.983 506.5,283.5 Z"/></g>
<g><path style="opacity:1" fill="#37ddf9" d="M 672.5,279.5 C 674.062,283.758 673.728,287.758 671.5,291.5C 674.186,280.352 669.853,275.852 658.5,278C 655.899,281.112 652.899,283.612 649.5,285.5C 652.167,282.167 655.167,279.167 658.5,276.5C 663.806,274.716 668.473,275.716 672.5,279.5 Z"/></g>
<g><path style="opacity:1" fill="#54e1f9" d="M 212.5,285.5 C 215.833,288.167 218.833,291.167 221.5,294.5C 217.5,292.5 214.5,289.5 212.5,285.5 Z"/></g>
<g><path style="opacity:1" fill="#5ee4fa" d="M 649.5,285.5 C 646.167,289.5 642.5,293.167 638.5,296.5C 641.167,291.833 644.833,288.167 649.5,285.5 Z"/></g>
<g><path style="opacity:1" fill="#42dff9" d="M 638.5,296.5 C 635.202,301.132 631.536,305.466 627.5,309.5C 630.046,304.281 633.713,299.948 638.5,296.5 Z"/></g>
<g><path style="opacity:1" fill="#cdf7fd" d="M 197.5,299.5 C 199.167,300.5 200.5,301.833 201.5,303.5C 201.5,303.833 201.5,304.167 201.5,304.5C 199.413,303.415 198.08,301.749 197.5,299.5 Z"/></g>
<g><path style="opacity:1" fill="#8dedfb" d="M 509.5,296.5 C 510.924,298.515 511.59,300.848 511.5,303.5C 510.076,301.485 509.41,299.152 509.5,296.5 Z"/></g>
<g><path style="opacity:1" fill="#65e5fa" d="M 201.5,304.5 C 201.5,304.167 201.5,303.833 201.5,303.5C 205.1,305.43 208.1,308.097 210.5,311.5C 207.233,309.573 204.233,307.239 201.5,304.5 Z"/></g>
<g><path style="opacity:1" fill="#c6f5fd" d="M 496.5,334.5 C 495.9,333.1 494.9,332.1 493.5,331.5C 493.709,330.078 494.209,328.745 495,327.5C 495.977,329.74 496.477,332.073 496.5,334.5 Z"/></g>
<g><path style="opacity:1" fill="#4ae0f9" d="M 254.5,335.5 C 258.767,336.256 262.767,337.589 266.5,339.5C 262.085,339.139 258.085,337.806 254.5,335.5 Z"/></g>
<g><path style="opacity:1" fill="#fdfefe" d="M 254.5,335.5 C 258.085,337.806 262.085,339.139 266.5,339.5C 282.488,344.931 298.155,351.431 313.5,359C 346.926,377.599 366.926,405.765 373.5,443.5C 373.631,457.848 373.298,472.181 372.5,486.5C 372.5,487.833 372.5,489.167 372.5,490.5C 366.819,515.524 352.485,533.857 329.5,545.5C 326.008,546.41 323.008,548.076 320.5,550.5C 319.5,550.5 318.5,550.5 317.5,550.5C 316.167,550.5 314.833,550.5 313.5,550.5C 313.826,541.983 313.493,533.65 312.5,525.5C 311.998,512.005 311.331,498.672 310.5,485.5C 310.08,478.716 310.58,472.05 312,465.5C 313.5,464 315,462.5 316.5,461C 323.549,460.677 330.549,461.177 337.5,462.5C 342.943,462.378 348.276,461.545 353.5,460C 357.5,456.667 357.5,453.333 353.5,450C 351.19,449.503 348.857,449.337 346.5,449.5C 339.151,449.451 331.817,449.118 324.5,448.5C 320.4,448.237 316.4,448.57 312.5,449.5C 311.022,448.552 310.022,447.219 309.5,445.5C 308.774,440.963 306.107,439.13 301.5,440C 300.627,441.045 299.627,441.878 298.5,442.5C 297.833,449.5 297.167,456.5 296.5,463.5C 280.912,446.467 263.246,443.967 243.5,456C 240.938,458.733 238.271,461.233 235.5,463.5C 234.167,463.5 232.833,463.5 231.5,463.5C 228.833,463.5 226.167,463.5 223.5,463.5C 223.821,458.305 223.487,453.305 222.5,448.5C 222.097,434.332 221.43,420.332 220.5,406.5C 219.909,392.834 219.742,379.167 220,365.5C 221.326,356.349 225.16,348.515 231.5,342C 236.242,339.771 240.075,340.938 243,345.5C 245.066,348.961 246.566,352.627 247.5,356.5C 246.993,363.542 246.993,370.542 247.5,377.5C 250.066,379.599 252.733,379.932 255.5,378.5C 256.966,377.653 257.8,376.32 258,374.5C 259.254,367.535 259.587,360.535 259,353.5C 257.122,347.162 254.622,341.162 251.5,335.5C 252.5,335.5 253.5,335.5 254.5,335.5 Z"/></g>
<g><path style="opacity:1" fill="#8dedfb" d="M 519.5,345.5 C 520.924,347.515 521.59,349.848 521.5,352.5C 520.076,350.485 519.41,348.152 519.5,345.5 Z"/></g>
<g><path style="opacity:1" fill="#34dbf8" d="M 247.5,356.5 C 248.328,362.987 248.828,369.654 249,376.5C 250.789,378.229 252.956,378.896 255.5,378.5C 252.733,379.932 250.066,379.599 247.5,377.5C 246.993,370.542 246.993,363.542 247.5,356.5 Z"/></g>
<g><path style="opacity:1" fill="#49dcf9" d="M 210.5,356.5 C 209.605,368.807 209.272,381.141 209.5,393.5C 206.554,381.077 206.887,368.743 210.5,356.5 Z"/></g>
<g><path style="opacity:1" fill="#44dcf8" d="M 592.5,364.5 C 590.755,370.998 587.755,376.664 583.5,381.5C 585.74,375.35 588.74,369.684 592.5,364.5 Z"/></g>
<g><path style="opacity:1" fill="#58e0f9" d="M 583.5,381.5 C 583.163,385.836 581.496,389.503 578.5,392.5C 579.382,388.407 581.049,384.74 583.5,381.5 Z"/></g>
<g><path style="opacity:1" fill="#8dedfb" d="M 529.5,394.5 C 530.924,396.515 531.59,398.848 531.5,401.5C 530.076,399.485 529.41,397.152 529.5,394.5 Z"/></g>
<g><path style="opacity:1" fill="#6de5fa" d="M 565.5,421.5 C 565.741,423.898 565.074,425.898 563.5,427.5C 563.259,425.102 563.926,423.102 565.5,421.5 Z"/></g>
<g><path style="opacity:1" fill="#c7f6fd" d="M 460.5,429.5 C 460.655,432.716 459.655,435.383 457.5,437.5C 458.129,434.603 459.129,431.936 460.5,429.5 Z"/></g>
<g><path style="opacity:1" fill="#52e0f9" d="M 146.5,437.5 C 140.738,435.389 135.738,436.389 131.5,440.5C 132.353,437.482 134.353,435.649 137.5,435C 139.833,434.333 142.167,434.333 144.5,435C 145.381,435.708 146.047,436.542 146.5,437.5 Z"/></g>
<g><path style="opacity:1" fill="#54e3fa" d="M 389.5,420.5 C 391.335,423.842 392.502,427.509 393,431.5C 394.49,439.102 395.323,446.769 395.5,454.5C 395.825,461.687 395.491,468.687 394.5,475.5C 394.666,465.828 394.5,456.161 394,446.5C 392.267,437.865 390.767,429.198 389.5,420.5 Z"/></g>
<g><path style="opacity:1" fill="#c5f5fd" d="M 639.5,439.5 C 641.81,438.836 644.31,438.503 647,438.5C 650.805,438.304 654.305,438.97 657.5,440.5C 651.536,439.693 645.536,439.36 639.5,439.5 Z"/></g>
<g><path style="opacity:1" fill="#0dcdf6" d="M 639.5,439.5 C 645.536,439.36 651.536,439.693 657.5,440.5C 663.494,443.16 667.827,447.494 670.5,453.5C 672.039,458.346 672.706,463.346 672.5,468.5C 670.24,477.957 665.24,485.791 657.5,492C 652.936,495.11 648.269,497.944 643.5,500.5C 638.607,501.796 633.94,503.462 629.5,505.5C 626.944,505.132 624.944,505.966 623.5,508C 629.532,519.846 639.198,525.013 652.5,523.5C 657.541,523.162 661.874,521.495 665.5,518.5C 667.764,516.686 670.097,514.853 672.5,513C 681.075,510.287 686.408,513.287 688.5,522C 688.091,524.321 687.257,526.487 686,528.5C 664.439,547.287 641.605,549.121 617.5,534C 611.019,528.361 606.352,521.528 603.5,513.5C 603.5,512.167 603.5,510.833 603.5,509.5C 598.5,509.5 593.5,509.5 588.5,509.5C 583.645,508.346 580.979,505.18 580.5,500C 580.528,498.93 580.861,498.097 581.5,497.5C 583.266,495.229 585.266,493.063 587.5,491C 592.202,490.828 596.868,490.328 601.5,489.5C 602.417,486.242 602.751,482.909 602.5,479.5C 605.824,462.523 615.157,450.189 630.5,442.5C 633.152,442.59 635.485,441.924 637.5,440.5C 637.842,439.662 638.508,439.328 639.5,439.5 Z"/></g>
<g><path style="opacity:1" fill="#6be7fa" d="M 637.5,440.5 C 635.485,441.924 633.152,442.59 630.5,442.5C 632.515,441.076 634.848,440.41 637.5,440.5 Z"/></g>
<g><path style="opacity:1" fill="#c1f5fd" d="M 149.5,439.5 C 151.026,440.492 151.693,441.992 151.5,444C 151.486,445.385 151.152,446.551 150.5,447.5C 150.599,444.763 150.265,442.096 149.5,439.5 Z"/></g>
<g><path style="opacity:1" fill="#cbf6fd" d="M 309.5,445.5 C 310.022,447.219 311.022,448.552 312.5,449.5C 311.828,450.267 310.995,450.934 310,451.5C 309.505,449.527 309.338,447.527 309.5,445.5 Z"/></g>
<g><path style="opacity:1" fill="#d4f8fd" d="M 324.5,448.5 C 331.817,449.118 339.151,449.451 346.5,449.5C 344.022,450.164 341.355,450.497 338.5,450.5C 333.588,450.579 328.921,449.912 324.5,448.5 Z"/></g>
<g><path style="opacity:1" fill="#3ce1f9" d="M 875.5,451.5 C 870.807,451.54 866.141,451.873 861.5,452.5C 863.807,450.953 866.473,450.287 869.5,450.5C 871.696,450.505 873.696,450.838 875.5,451.5 Z"/></g>
<g><path style="opacity:1" fill="#0ecef6" d="M 875.5,451.5 C 892.131,456.88 897.631,467.88 892,484.5C 890.871,486.141 889.371,487.141 887.5,487.5C 884.813,487.664 882.146,487.497 879.5,487C 878.211,485.198 876.544,484.031 874.5,483.5C 873.897,479.727 873.23,476.061 872.5,472.5C 871.791,471.596 870.791,471.263 869.5,471.5C 869.216,473.415 869.549,475.081 870.5,476.5C 870.833,477.833 871.167,479.167 871.5,480.5C 872.596,483.032 873.929,485.365 875.5,487.5C 876.026,489.23 877.026,490.564 878.5,491.5C 879.576,494.871 880.576,498.204 881.5,501.5C 882.276,508.137 882.609,514.804 882.5,521.5C 879.682,534.483 871.682,542.317 858.5,545C 844.266,547.049 833.599,541.882 826.5,529.5C 824.994,523.269 824.327,516.936 824.5,510.5C 824.5,509.833 824.5,509.167 824.5,508.5C 825.5,506.833 826.833,505.5 828.5,504.5C 831.096,503.735 833.763,503.401 836.5,503.5C 843.717,506.392 846.551,511.726 845,519.5C 847.541,524.069 851.375,525.569 856.5,524C 858.66,523.004 860.327,521.504 861.5,519.5C 864.287,514.328 863.954,509.328 860.5,504.5C 857.147,497.795 853.814,491.128 850.5,484.5C 849.725,479.203 849.392,473.87 849.5,468.5C 850.617,460.906 854.617,455.573 861.5,452.5C 866.141,451.873 870.807,451.54 875.5,451.5 Z"/></g>
<g><path style="opacity:1" fill="#d1f7fd" d="M 298.5,442.5 C 298.666,450.507 298.5,458.507 298,466.5C 296.961,465.756 296.461,464.756 296.5,463.5C 297.167,456.5 297.833,449.5 298.5,442.5 Z"/></g>
<g><path style="opacity:1" fill="#39ddf9" d="M 220.5,406.5 C 221.43,420.332 222.097,434.332 222.5,448.5C 222.5,453.833 222.5,459.167 222.5,464.5C 225.713,464.81 228.713,464.477 231.5,463.5C 232.833,463.5 234.167,463.5 235.5,463.5C 235.389,464.117 235.056,464.617 234.5,465C 230.179,465.499 225.846,465.666 221.5,465.5C 220.728,445.843 220.394,426.177 220.5,406.5 Z"/></g>
<g><path style="opacity:1" fill="#dff9fd" d="M 373.5,443.5 C 374.404,444.209 374.737,445.209 374.5,446.5C 374.667,457.505 374.5,468.505 374,479.5C 373.814,482.036 373.314,484.369 372.5,486.5C 373.298,472.181 373.631,457.848 373.5,443.5 Z"/></g>
<g><path style="opacity:1" fill="#dcf9fd" d="M 222.5,448.5 C 223.487,453.305 223.821,458.305 223.5,463.5C 226.167,463.5 228.833,463.5 231.5,463.5C 228.713,464.477 225.713,464.81 222.5,464.5C 222.5,459.167 222.5,453.833 222.5,448.5 Z"/></g>
<g><path style="opacity:1" fill="#0ccdf6" d="M 709.5,462.5 C 714.412,469.315 718.579,476.648 722,484.5C 725.618,491.963 728.785,499.63 731.5,507.5C 735.305,500.744 739.971,494.577 745.5,489C 755.542,484.11 764.042,486.277 771,495.5C 773.833,499.833 776.667,504.167 779.5,508.5C 780.943,505.923 782.61,503.59 784.5,501.5C 788.647,497.205 792.313,492.538 795.5,487.5C 795.833,486.833 796.167,486.167 796.5,485.5C 800.905,482.604 804.905,479.104 808.5,475C 811.482,474.502 814.482,474.335 817.5,474.5C 820.091,475.254 821.924,476.921 823,479.5C 823.736,482.592 823.569,485.592 822.5,488.5C 820.413,489.585 819.08,491.251 818.5,493.5C 813.17,497.997 808.337,502.997 804,508.5C 798.476,517.547 793.476,526.88 789,536.5C 787.028,538.232 784.861,539.565 782.5,540.5C 780.473,540.662 778.473,540.495 776.5,540C 774.595,538.579 772.595,537.412 770.5,536.5C 766.002,527.499 761.002,518.832 755.5,510.5C 749.264,518.623 743.764,527.29 739,536.5C 737.259,537.758 735.426,538.758 733.5,539.5C 729.3,539.81 725.3,539.143 721.5,537.5C 713.287,516.542 704.287,495.875 694.5,475.5C 692.65,471.355 692.15,467.021 693,462.5C 698.426,457.276 703.926,457.276 709.5,462.5 Z"/></g>
<g><path style="opacity:1" fill="#c0f5fd" d="M 649.5,460.5 C 646.14,460.616 642.807,460.949 639.5,461.5C 642.708,459.469 646.041,459.135 649.5,460.5 Z"/></g>
<g><path style="opacity:1" fill="#fdfefe" d="M 259.5,460.5 C 275.547,458.716 286.38,465.383 292,480.5C 299.863,510.552 292.696,536.385 270.5,558C 265.411,558.826 260.411,558.492 255.5,557C 229.163,534.135 223.997,507.301 240,476.5C 244.966,469.126 251.466,463.793 259.5,460.5 Z"/></g>
<g><path style="opacity:1" fill="#f8fdfe" d="M 649.5,460.5 C 651.246,461.249 652.246,462.583 652.5,464.5C 649.873,471.458 645.207,476.458 638.5,479.5C 634.468,480.61 630.802,482.277 627.5,484.5C 625.883,485.038 624.216,485.371 622.5,485.5C 623.765,474.279 629.431,466.279 639.5,461.5C 642.807,460.949 646.14,460.616 649.5,460.5 Z"/></g>
<g><path style="opacity:1" fill="#43def9" d="M 709.5,462.5 C 703.926,457.276 698.426,457.276 693,462.5C 692.15,467.021 692.65,471.355 694.5,475.5C 688.922,469.307 689.255,463.474 695.5,458C 701.674,455.27 706.341,456.77 709.5,462.5 Z"/></g>
<g><path style="opacity:1" fill="#d5f8fd" d="M 573.5,459.5 C 572.943,464.165 571.61,468.498 569.5,472.5C 570.057,467.835 571.39,463.502 573.5,459.5 Z"/></g>
<g><path style="opacity:1" fill="#48e3fa" d="M 670.5,453.5 C 671.558,454.6 672.392,455.934 673,457.5C 673.81,461.358 673.643,465.024 672.5,468.5C 672.706,463.346 672.039,458.346 670.5,453.5 Z"/></g>
<g><path style="opacity:1" fill="#4ae0f9" d="M 429.5,457.5 C 428.656,462.836 426.989,467.836 424.5,472.5C 425.194,467.085 426.86,462.085 429.5,457.5 Z"/></g>
<g><path style="opacity:1" fill="#31dbf8" d="M 208.5,466.5 C 202.721,467.896 196.721,468.729 190.5,469C 188.081,470.509 187.081,472.675 187.5,475.5C 185.926,472.57 186.592,470.07 189.5,468C 195.806,467.103 202.139,466.603 208.5,466.5 Z"/></g>
<g><path style="opacity:1" fill="#c9f6fd" d="M 545.5,469.5 C 546.222,469.918 546.722,470.584 547,471.5C 547.383,470.944 547.883,470.611 548.5,470.5C 546.64,475.816 545.64,475.483 545.5,469.5 Z"/></g>
<g><path style="opacity:1" fill="#b1f2fc" d="M 872.5,472.5 C 870.824,473.183 870.157,474.517 870.5,476.5C 869.549,475.081 869.216,473.415 869.5,471.5C 870.791,471.263 871.791,471.596 872.5,472.5 Z"/></g>
<g><path style="opacity:1" fill="#f4fdfe" d="M 872.5,472.5 C 872.806,475.385 872.473,478.052 871.5,480.5C 871.167,479.167 870.833,477.833 870.5,476.5C 870.157,474.517 870.824,473.183 872.5,472.5 Z"/></g>
<g><path style="opacity:1" fill="#56e1f9" d="M 817.5,474.5 C 814.482,474.335 811.482,474.502 808.5,475C 804.905,479.104 800.905,482.604 796.5,485.5C 800.73,479.424 806.23,475.091 813,472.5C 814.876,472.525 816.376,473.191 817.5,474.5 Z"/></g>
<g><path style="opacity:1" fill="#e2fafe" d="M 395.5,454.5 C 396.657,463.324 396.824,472.324 396,481.5C 395.768,482.737 395.268,483.737 394.5,484.5C 394.5,481.5 394.5,478.5 394.5,475.5C 395.491,468.687 395.825,461.687 395.5,454.5 Z"/></g>
<g><path style="opacity:1" fill="#6ae8fb" d="M 129.5,449.5 C 127.966,462.443 127.299,475.443 127.5,488.5C 127.167,488.5 126.833,488.5 126.5,488.5C 126.334,480.16 126.5,471.827 127,463.5C 127.354,458.611 128.187,453.944 129.5,449.5 Z"/></g>
<g><path style="opacity:1" fill="#e1fafd" d="M 226.5,477.5 C 225.4,478.605 224.733,479.938 224.5,481.5C 223.549,480.081 223.216,478.415 223.5,476.5C 224.791,476.263 225.791,476.596 226.5,477.5 Z"/></g>
<g><path style="opacity:1" fill="#4ee5fa" d="M 226.5,477.5 C 225.791,476.596 224.791,476.263 223.5,476.5C 223.216,478.415 223.549,480.081 224.5,481.5C 224.688,483.103 224.188,484.437 223,485.5C 222.502,482.183 222.335,478.85 222.5,475.5C 224.288,475.215 225.955,475.548 227.5,476.5C 227.376,477.107 227.043,477.44 226.5,477.5 Z"/></g>
<g><path style="opacity:1" fill="#50e0f9" d="M 638.5,479.5 C 638.53,480.497 638.03,481.164 637,481.5C 634.042,483.218 630.875,484.218 627.5,484.5C 630.802,482.277 634.468,480.61 638.5,479.5 Z"/></g>
<g><path style="opacity:1" fill="#c3f5fd" d="M 849.5,468.5 C 849.392,473.87 849.725,479.203 850.5,484.5C 848.994,481.644 848.328,478.477 848.5,475C 848.504,472.639 848.837,470.473 849.5,468.5 Z"/></g>
<g><path style="opacity:1" fill="#ddf9fd" d="M 203.5,478.5 C 205.948,477.527 208.615,477.194 211.5,477.5C 211.5,481.167 211.5,484.833 211.5,488.5C 210.521,485.375 210.187,482.042 210.5,478.5C 208.167,478.5 205.833,478.5 203.5,478.5 Z"/></g>
<g><path style="opacity:1" fill="#b0f2fc" d="M 872.5,472.5 C 873.23,476.061 873.897,479.727 874.5,483.5C 875.167,484.5 875.833,485.5 876.5,486.5C 875.833,486.5 875.5,486.833 875.5,487.5C 873.929,485.365 872.596,483.032 871.5,480.5C 872.473,478.052 872.806,475.385 872.5,472.5 Z"/></g>
<g><path style="opacity:1" fill="#37dff9" d="M 874.5,483.5 C 876.544,484.031 878.211,485.198 879.5,487C 882.146,487.497 884.813,487.664 887.5,487.5C 887.158,488.338 886.492,488.672 885.5,488.5C 882.162,488.935 879.162,488.268 876.5,486.5C 875.833,485.5 875.167,484.5 874.5,483.5 Z"/></g>
<g><path style="opacity:1" fill="#4de2f9" d="M 374.5,446.5 C 375.66,458.326 375.826,470.326 375,482.5C 374.721,485.457 373.887,488.123 372.5,490.5C 372.5,489.167 372.5,487.833 372.5,486.5C 373.314,484.369 373.814,482.036 374,479.5C 374.5,468.505 374.667,457.505 374.5,446.5 Z"/></g>
<g><path style="opacity:1" fill="#d9f8fd" d="M 876.5,486.5 C 879.162,488.268 882.162,488.935 885.5,488.5C 882.841,488.917 880.508,489.917 878.5,491.5C 877.026,490.564 876.026,489.23 875.5,487.5C 875.5,486.833 875.833,486.5 876.5,486.5 Z"/></g>
<g><path style="opacity:1" fill="#48e2f9" d="M 602.5,479.5 C 602.751,482.909 602.417,486.242 601.5,489.5C 596.868,490.328 592.202,490.828 587.5,491C 585.266,493.063 583.266,495.229 581.5,497.5C 582.091,494.386 583.758,491.886 586.5,490C 591.155,489.501 595.821,489.334 600.5,489.5C 600.549,485.922 601.215,482.589 602.5,479.5 Z"/></g>
<g><path style="opacity:1" fill="#cef6fd" d="M 822.5,488.5 C 821.92,490.749 820.587,492.415 818.5,493.5C 819.08,491.251 820.413,489.585 822.5,488.5 Z"/></g>
<g><path style="opacity:1" fill="#76e9fb" d="M 394.5,484.5 C 394.435,487.428 393.768,490.095 392.5,492.5C 392.294,489.505 392.96,486.838 394.5,484.5 Z"/></g>
<g><path style="opacity:1" fill="#4be1f9" d="M 147.5,465.5 C 146.9,477.337 147.9,489.004 150.5,500.5C 149.109,498.04 147.942,495.374 147,492.5C 146.176,483.324 146.343,474.324 147.5,465.5 Z"/></g>
<g><path style="opacity:1" fill="#d5f7fd" d="M 126.5,488.5 C 126.833,488.5 127.167,488.5 127.5,488.5C 127.538,493.271 128.204,497.938 129.5,502.5C 126.91,498.307 125.91,493.64 126.5,488.5 Z"/></g>
<g><path style="opacity:1" fill="#50e1f9" d="M 795.5,487.5 C 792.313,492.538 788.647,497.205 784.5,501.5C 787.204,496.099 790.871,491.432 795.5,487.5 Z"/></g>
<g><path style="opacity:1" fill="#c1f5fd" d="M 836.5,503.5 C 833.763,503.401 831.096,503.735 828.5,504.5C 829.492,502.974 830.992,502.307 833,502.5C 834.385,502.514 835.551,502.848 836.5,503.5 Z"/></g>
<g><path style="opacity:1" fill="#51e0f9" d="M 150.5,500.5 C 153.267,504.374 155.267,508.707 156.5,513.5C 154.399,510.752 152.566,507.752 151,504.5C 150.51,503.207 150.343,501.873 150.5,500.5 Z"/></g>
<g><path style="opacity:1" fill="#cbf6fd" d="M 391.5,501.5 C 391.59,504.152 390.924,506.485 389.5,508.5C 389.41,505.848 390.076,503.515 391.5,501.5 Z"/></g>
<g><path style="opacity:1" fill="#d8f8fd" d="M 643.5,500.5 C 639.37,503.324 634.703,504.991 629.5,505.5C 633.94,503.462 638.607,501.796 643.5,500.5 Z"/></g>
<g><path style="opacity:1" fill="#75eafb" d="M 588.5,509.5 C 593.5,509.5 598.5,509.5 603.5,509.5C 603.5,510.833 603.5,512.167 603.5,513.5C 602.596,512.791 602.263,511.791 602.5,510.5C 597.637,510.819 592.97,510.486 588.5,509.5 Z"/></g>
<g><path style="opacity:1" fill="#dcf9fd" d="M 860.5,504.5 C 863.954,509.328 864.287,514.328 861.5,519.5C 861.587,514.463 861.254,509.463 860.5,504.5 Z"/></g>
<g><path style="opacity:1" fill="#3ae0f9" d="M 881.5,501.5 C 883.048,505.034 883.714,508.867 883.5,513C 883.498,516.021 883.164,518.854 882.5,521.5C 882.609,514.804 882.276,508.137 881.5,501.5 Z"/></g>
<g><path style="opacity:1" fill="#dbf8fd" d="M 824.5,508.5 C 824.5,509.167 824.5,509.833 824.5,510.5C 823.256,515.035 823.256,519.702 824.5,524.5C 823.883,524.389 823.383,524.056 823,523.5C 822.333,518.833 822.333,514.167 823,509.5C 823.383,508.944 823.883,508.611 824.5,508.5 Z"/></g>
<g><path style="opacity:1" fill="#5de6fa" d="M 824.5,510.5 C 824.327,516.936 824.994,523.269 826.5,529.5C 825.463,528.07 824.796,526.403 824.5,524.5C 823.256,519.702 823.256,515.035 824.5,510.5 Z"/></g>
<g><path style="opacity:1" fill="#35dcf9" d="M 212.5,496.5 C 214.195,516.641 214.862,536.974 214.5,557.5C 212.901,557.768 211.568,557.434 210.5,556.5C 211.5,556.5 212.5,556.5 213.5,556.5C 213.167,536.5 212.833,516.5 212.5,496.5 Z"/></g>
<g><path style="opacity:1" fill="#ccf6fd" d="M 561.5,509.5 C 560.577,519.316 559.577,528.982 558.5,538.5C 558.136,528.552 559.136,518.885 561.5,509.5 Z"/></g>
<g><path style="opacity:1" fill="#5ce4fa" d="M 665.5,518.5 C 661.874,521.495 657.541,523.162 652.5,523.5C 656.68,521.658 661.013,519.992 665.5,518.5 Z"/></g>
<g><path style="opacity:1" fill="#4ce0f9" d="M 166.5,528.5 C 169.833,531.167 172.833,534.167 175.5,537.5C 171.5,535.5 168.5,532.5 166.5,528.5 Z"/></g>
<g><path style="opacity:1" fill="#56e0f9" d="M 405.5,528.5 C 404.838,532.466 404.505,536.466 404.5,540.5C 401.749,536.311 402.083,532.311 405.5,528.5 Z"/></g>
<g><path style="opacity:1" fill="#4ee3fa" d="M 310.5,485.5 C 311.331,498.672 311.998,512.005 312.5,525.5C 312.5,531.167 312.5,536.833 312.5,542.5C 310.99,523.687 310.323,504.687 310.5,485.5 Z"/></g>
<g><path style="opacity:1" fill="#cef7fd" d="M 376.5,533.5 C 375.92,535.749 374.587,537.415 372.5,538.5C 373.08,536.251 374.413,534.585 376.5,533.5 Z"/></g>
<g><path style="opacity:1" fill="#58e4fa" d="M 770.5,536.5 C 772.595,537.412 774.595,538.579 776.5,540C 778.473,540.495 780.473,540.662 782.5,540.5C 777.486,542.532 773.486,541.199 770.5,536.5 Z"/></g>
<g><path style="opacity:1" fill="#daf8fd" d="M 312.5,525.5 C 313.493,533.65 313.826,541.983 313.5,550.5C 314.833,550.5 316.167,550.5 317.5,550.5C 316.359,551.339 315.026,552.006 313.5,552.5C 312.513,549.232 312.18,545.898 312.5,542.5C 312.5,536.833 312.5,531.167 312.5,525.5 Z"/></g>
<g><path style="opacity:1" fill="#4fe0f9" d="M 721.5,537.5 C 725.3,539.143 729.3,539.81 733.5,539.5C 729.032,542.343 725.032,541.676 721.5,537.5 Z"/></g>
<g><path style="opacity:1" fill="#f2fcfe" d="M 294.5,558.5 C 291.648,559.258 288.981,559.258 286.5,558.5C 292.243,552.031 296.743,544.697 300,536.5C 301.22,543.133 301.553,549.8 301,556.5C 298.846,557.23 296.679,557.897 294.5,558.5 Z"/></g>
<g><path style="opacity:1" fill="#f4fdfe" d="M 226.5,538.5 C 230.837,546.677 236.171,554.177 242.5,561C 236.682,561.789 231.016,561.289 225.5,559.5C 225.175,552.313 225.509,545.313 226.5,538.5 Z"/></g>
<g><path style="opacity:1" fill="#40e3fa" d="M 226.5,538.5 C 225.509,545.313 225.175,552.313 225.5,559.5C 224.344,552.011 224.178,544.345 225,536.5C 225.717,537.044 226.217,537.711 226.5,538.5 Z"/></g>
<g><path style="opacity:1" fill="#57e1f9" d="M 329.5,545.5 C 327.349,548.415 324.349,550.082 320.5,550.5C 323.008,548.076 326.008,546.41 329.5,545.5 Z"/></g>
<g><path style="opacity:1" fill="#57e2f9" d="M 157.5,548.5 C 161.878,551.359 165.878,554.692 169.5,558.5C 164.752,556.118 160.752,552.784 157.5,548.5 Z"/></g>
<g><path style="opacity:1" fill="#64e6fa" d="M 286.5,558.5 C 288.981,559.258 291.648,559.258 294.5,558.5C 291.481,560.337 288.148,560.837 284.5,560C 285.044,559.283 285.711,558.783 286.5,558.5 Z"/></g>
<g><path style="opacity:1" fill="#d4f7fd" d="M 325.5,570.5 C 320.367,573.658 314.7,575.658 308.5,576.5C 313.941,574.129 319.608,572.129 325.5,570.5 Z"/></g>
<g><path style="opacity:1" fill="#32dff9" d="M 227.5,580.5 C 232.434,580.229 237.1,580.896 241.5,582.5C 236.586,582.638 231.919,581.972 227.5,580.5 Z"/></g>
<g><path style="opacity:1" fill="#c8f6fd" d="M 289.5,580.5 C 282.838,582.87 275.838,583.87 268.5,583.5C 275.352,582.426 282.352,581.426 289.5,580.5 Z"/></g>
</svg>
